<svg xmlns="http://www.w3.org/2000/svg" width="662" height="302" style="
        width:662px;
        height:302px;
        background: white;
        fill: none;
">
        
        <svg xmlns="http://www.w3.org/2000/svg" class="role-diagram-draw-area"><g class="shapes-region" style="stroke: black; fill: none;"><g class="grouped-shape"><g class="composite-shape ignore-highlight"><path class="real" d=" M181,116 L251,116 L251,156 L181,156 Z" style="stroke-width: 1; stroke: rgb(0, 0, 0); fill: none;"/></g><g class="composite-shape ignore-highlight"><path class="real" d=" M331,116 L401,116 L401,156 L331,156 Z" style="stroke-width: 1; stroke: rgb(0, 0, 0); fill: none;"/></g><g class="composite-shape ignore-highlight"><path class="real" d=" M181,46 L251,46 L251,86 L181,86 Z" style="stroke-width: 1; stroke: rgb(0, 0, 0); fill: none;"/></g><g class="composite-shape ignore-highlight"><path class="real" d=" M331,46 L401,46 L401,86 L331,86 Z" style="stroke-width: 1; stroke: rgb(0, 0, 0); fill: none;"/></g><g class="arrow-line"><path class="connection real" stroke-dasharray="" d="  M140.5,130.6 L176.5,130.6" style="stroke: rgb(38, 77, 197); stroke-width: 1; fill: none;"/><g stroke="rgba(38,77,197,1)" transform="matrix(-1,1.2246467991473532e-16,-1.2246467991473532e-16,-1,178.49999999999997,130.5999908447266)" style="stroke: rgb(38, 77, 197); stroke-width: 1;"><path d=" M10.93,-3.29 Q4.96,-0.45 0,0 Q4.96,0.45 10.93,3.29"/></g></g><g class="arrow-line"><path class="connection real" stroke-dasharray="" d="  M287.5,125.6 L254.91,93.01" style="stroke: rgb(38, 77, 197); stroke-width: 1; fill: none;"/><g stroke="rgba(38,77,197,1)" transform="matrix(0.7071067811865483,0.7071067811865467,-0.7071067811865467,0.7071067811865483,253.5,91.59999084472656)" style="stroke: rgb(38, 77, 197); stroke-width: 1;"><path d=" M10.93,-3.29 Q4.96,-0.45 0,0 Q4.96,0.45 10.93,3.29"/></g></g><g class="arrow-line"><path class="connection real" stroke-dasharray="" d="  M294.5,125.6 L329.11,89.64" style="stroke: rgb(38, 77, 197); stroke-width: 1; fill: none;"/><g stroke="rgba(38,77,197,1)" transform="matrix(-0.6935275776073386,0.7204300792568956,-0.7204300792568956,-0.6935275776073386,330.49999999999994,88.19999694824219)" style="stroke: rgb(38, 77, 197); stroke-width: 1;"><path d=" M10.93,-3.29 Q4.96,-0.45 0,0 Q4.96,0.45 10.93,3.29"/></g></g><g class="arrow-line"><path class="connection real" stroke-dasharray="" d="  M407.5,74.6 L435.5,74.79" style="stroke: rgb(38, 77, 197); stroke-width: 1; fill: none;"/><g stroke="rgba(38,77,197,1)" transform="matrix(-0.9999780067029094,-0.006632202535817041,0.006632202535817041,-0.9999780067029094,437.5,74.8000030517578)" style="stroke: rgb(38, 77, 197); stroke-width: 1;"><path d=" M10.93,-3.29 Q4.96,-0.45 0,0 Q4.96,0.45 10.93,3.29"/></g></g><g class="arrow-line"><path class="connection real" stroke-dasharray="" d="  M436.5,59.6 L407.5,59.79" style="stroke: rgb(208, 2, 27); stroke-width: 1; fill: none;"/><g stroke="rgba(208,2,27,1)" transform="matrix(0.9999791490100767,-0.006457673349043874,0.006457673349043874,0.9999791490100767,405.5,59.80000305175781)" style="stroke: rgb(208, 2, 27); stroke-width: 1;"><path d=" M10.93,-3.29 Q4.96,-0.45 0,0 Q4.96,0.45 10.93,3.29"/></g></g><g class="arrow-line"><path class="connection real" stroke-dasharray="" d="  M254.5,136.6 L270.5,136.6" style="stroke: rgb(38, 77, 197); stroke-width: 1; fill: none;"/><g stroke="rgba(38,77,197,1)" transform="matrix(-1,1.2246467991473532e-16,-1.2246467991473532e-16,-1,272.5,136.5999908447266)" style="stroke: rgb(38, 77, 197); stroke-width: 1;"><path d=" M10.93,-3.29 Q4.96,-0.45 0,0 Q4.96,0.45 10.93,3.29"/></g></g><g class="arrow-line"><path class="connection real" stroke-dasharray="" d="  M287.5,77.6 L254.88,111.75" style="stroke: rgb(208, 2, 27); stroke-width: 1; fill: none;"/><g stroke="rgba(208,2,27,1)" transform="matrix(0.6906300058494225,-0.7232082653153423,0.7232082653153423,0.6906300058494225,253.5,113.1999969482422)" style="stroke: rgb(208, 2, 27); stroke-width: 1;"><path d=" M10.93,-3.29 Q4.96,-0.45 0,0 Q4.96,0.45 10.93,3.29"/></g></g><g class="arrow-line"><path class="connection real" stroke-dasharray="" d="  M329.5,70.6 L314.5,70.6" style="stroke: rgb(208, 2, 27); stroke-width: 1; fill: none;"/><g stroke="rgba(208,2,27,1)" transform="matrix(1,-2.4492935982947064e-16,2.4492935982947064e-16,1,312.5,70.59999084472656)" style="stroke: rgb(208, 2, 27); stroke-width: 1;"><path d=" M10.93,-3.29 Q4.96,-0.45 0,0 Q4.96,0.45 10.93,3.29"/></g></g><g class="arrow-line"><path class="connection real" stroke-dasharray="" d="  M296.5,79.6 L326.15,112.12" style="stroke: rgb(208, 2, 27); stroke-width: 1; fill: none;"/><g stroke="rgba(208,2,27,1)" transform="matrix(-0.6737866842192911,-0.7389259125032585,0.7389259125032585,-0.6737866842192911,327.5,113.59999084472656)" style="stroke: rgb(208, 2, 27); stroke-width: 1;"><path d=" M10.93,-3.29 Q4.96,-0.45 0,0 Q4.96,0.45 10.93,3.29"/></g></g><g class="arrow-line"><path class="connection real" stroke-dasharray="" d="  M175.5,147.6 L140.5,147.79" style="stroke: rgb(208, 2, 27); stroke-width: 1; fill: none;"/><g stroke="rgba(208,2,27,1)" transform="matrix(0.9999853631686855,-0.005410494283531282,0.005410494283531282,0.9999853631686855,138.5,147.8000030517578)" style="stroke: rgb(208, 2, 27); stroke-width: 1;"><path d=" M10.93,-3.29 Q4.96,-0.45 0,0 Q4.96,0.45 10.93,3.29"/></g></g><g class="arrow-line"><path class="connection real" stroke-dasharray="" d="  M175.5,67.6 L140.5,67.79" style="stroke: rgb(38, 77, 197); stroke-width: 1; fill: none;"/><g stroke="rgba(38,77,197,1)" transform="matrix(0.9999853631686855,-0.005410494283531282,0.005410494283531282,0.9999853631686855,138.5,67.80000305175781)" style="stroke: rgb(38, 77, 197); stroke-width: 1;"><path d=" M10.93,-3.29 Q4.96,-0.45 0,0 Q4.96,0.45 10.93,3.29"/></g></g><g class="arrow-line"><path class="connection real" stroke-dasharray="" d="  M407.5,137.6 L435.5,137.79" style="stroke: rgb(208, 2, 27); stroke-width: 1; fill: none;"/><g stroke="rgba(208,2,27,1)" transform="matrix(-0.9999780067029094,-0.006632202535817041,0.006632202535817041,-0.9999780067029094,437.5,137.80000305175784)" style="stroke: rgb(208, 2, 27); stroke-width: 1;"><path d=" M10.93,-3.29 Q4.96,-0.45 0,0 Q4.96,0.45 10.93,3.29"/></g></g></g><g class="intersections-group"><g style="stroke: rgb(0, 0, 0); stroke-width: 1; fill: none;"/></g></g><g/><g/><!-- react-empty: 2094 --></svg>
        <svg xmlns="http://www.w3.org/2000/svg" width="660" height="300" style="width:660px;height:300px;font-family:Asana-Math, Asana;background:white;"><g><g><text x="115.625" y="137.40000915527344" style="white-space:pre;stroke:none;fill:rgb(0, 0, 0);font-size:15px;font-family:Arial, Helvetica, sans-serif;font-weight:400;dominant-baseline:text-before-edge;text-decoration:none solid rgb(0, 0, 0);"> </text></g></g><g><g><g><g><g><g style="transform:matrix(1,0,0,1,191.88128662109375,140.1593780517578);"><path d="M434 653C511 653 565 639 621 603L621 519L648 519C653 576 661 619 675 665C592 695 535 706 466 706C374 706 301 683 229 632C112 548 50 424 50 274C50 87 159 -18 355 -18C412 -21 559 6 608 37C628 193 632 216 633 219C635 228 647 238 660 240L692 246L694 274C655 270 620 269 569 269C518 269 482 270 440 274L435 246L469 244C544 240 553 236 553 212C553 197 533 84 528 60C483 36 444 27 390 27C224 27 138 120 138 297C138 443 197 653 434 653Z" stroke="rgb(0, 0, 0)" stroke-width="8" fill="rgb(0, 0, 0)" style="transform:matrix(0.017,0,0,-0.017,0,0);"></path></g><g><g><g><g style="transform:matrix(1,0,0,1,204.13751220703125,145.54064025878907);"><path d="M567 55C567 39 552 30 524 28L480 25L480 -3C582 0 582 0 602 0C622 0 622 0 724 -3L724 25L698 28C651 35 650 35 642 80L555 705L509 705L136 112C100 56 82 40 48 32L28 27L28 -3C120 0 120 0 140 0C159 0 161 0 247 -3L247 25L195 28C179 29 164 38 164 47C164 55 171 69 190 102L292 277L538 277L563 89L563 86C563 84 567 69 567 55ZM496 601L533 313L317 313Z" stroke="rgb(0, 0, 0)" stroke-width="8" fill="rgb(0, 0, 0)" style="transform:matrix(0.0119,0,0,-0.0119,0,0);"></path></g><g><g style="transform:matrix(1,0,0,1,218.41253662109375,145.54064025878907);"><path d="M949 272L743 486L711 452L836 300L65 300L65 241L836 241L711 89L743 55Z" stroke="rgb(0, 0, 0)" stroke-width="8" fill="rgb(0, 0, 0)" style="transform:matrix(0.0119,0,0,-0.0119,0,0);"></path></g></g><g style="transform:matrix(1,0,0,1,232.84375,145.54064025878907);"><path d="M543 227C543 337 459 353 377 365C434 385 459 397 490 425C536 464 559 511 559 562C559 644 501 692 401 692C399 692 389 692 374 691L311 690C299 689 263 689 251 689C232 689 201 690 152 691L100 692L97 664L150 662C174 661 185 653 185 635C185 621 181 589 176 559L89 55C85 37 73 30 31 23L26 -3L63 -2C90 0 105 0 117 0C128 0 154 -1 180 -2L217 -3L237 -4C256 -5 269 -6 277 -6C392 -6 543 87 543 227ZM166 41L217 340L302 340C405 340 455 298 455 211C455 108 382 34 282 34C228 34 207 38 166 41ZM352 655C433 655 473 619 473 544C473 439 399 376 275 376L223 376L272 650C288 650 329 655 352 655Z" stroke="rgb(0, 0, 0)" stroke-width="8" fill="rgb(0, 0, 0)" style="transform:matrix(0.0119,0,0,-0.0119,0,0);"></path></g></g></g></g></g></g></g></g></g><g><g><g><g><g><g style="transform:matrix(1,0,0,1,342.8843994140625,70.15937805175781);"><path d="M434 653C511 653 565 639 621 603L621 519L648 519C653 576 661 619 675 665C592 695 535 706 466 706C374 706 301 683 229 632C112 548 50 424 50 274C50 87 159 -18 355 -18C412 -21 559 6 608 37C628 193 632 216 633 219C635 228 647 238 660 240L692 246L694 274C655 270 620 269 569 269C518 269 482 270 440 274L435 246L469 244C544 240 553 236 553 212C553 197 533 84 528 60C483 36 444 27 390 27C224 27 138 120 138 297C138 443 197 653 434 653Z" stroke="rgb(0, 0, 0)" stroke-width="8" fill="rgb(0, 0, 0)" style="transform:matrix(0.017,0,0,-0.017,0,0);"></path></g><g><g><g><g style="transform:matrix(1,0,0,1,355.140625,75.540625);"><path d="M543 227C543 337 459 353 377 365C434 385 459 397 490 425C536 464 559 511 559 562C559 644 501 692 401 692C399 692 389 692 374 691L311 690C299 689 263 689 251 689C232 689 201 690 152 691L100 692L97 664L150 662C174 661 185 653 185 635C185 621 181 589 176 559L89 55C85 37 73 30 31 23L26 -3L63 -2C90 0 105 0 117 0C128 0 154 -1 180 -2L217 -3L237 -4C256 -5 269 -6 277 -6C392 -6 543 87 543 227ZM166 41L217 340L302 340C405 340 455 298 455 211C455 108 382 34 282 34C228 34 207 38 166 41ZM352 655C433 655 473 619 473 544C473 439 399 376 275 376L223 376L272 650C288 650 329 655 352 655Z" stroke="rgb(0, 0, 0)" stroke-width="8" fill="rgb(0, 0, 0)" style="transform:matrix(0.0119,0,0,-0.0119,0,0);"></path></g><g><g style="transform:matrix(1,0,0,1,367.734375,75.540625);"><path d="M949 272L743 486L711 452L836 300L65 300L65 241L836 241L711 89L743 55Z" stroke="rgb(0, 0, 0)" stroke-width="8" fill="rgb(0, 0, 0)" style="transform:matrix(0.0119,0,0,-0.0119,0,0);"></path></g></g><g style="transform:matrix(1,0,0,1,382.1656494140625,75.540625);"><path d="M567 55C567 39 552 30 524 28L480 25L480 -3C582 0 582 0 602 0C622 0 622 0 724 -3L724 25L698 28C651 35 650 35 642 80L555 705L509 705L136 112C100 56 82 40 48 32L28 27L28 -3C120 0 120 0 140 0C159 0 161 0 247 -3L247 25L195 28C179 29 164 38 164 47C164 55 171 69 190 102L292 277L538 277L563 89L563 86C563 84 567 69 567 55ZM496 601L533 313L317 313Z" stroke="rgb(0, 0, 0)" stroke-width="8" fill="rgb(0, 0, 0)" style="transform:matrix(0.0119,0,0,-0.0119,0,0);"></path></g></g></g></g></g></g></g></g></g><g><g><g><g><g><g style="transform:matrix(1,0,0,1,355.92498779296875,141.5593719482422);"><path d="M316 -3C388 -3 437 8 489 34C645 114 741 265 741 431C741 529 711 599 650 642C604 675 519 693 424 692L220 689L210 689C201 689 198 689 97 692L94 664L147 662C171 661 182 653 182 635C182 621 178 589 173 559L86 55C81 31 56 29 33 23L28 -3L121 0L176 0C211 0 282 -3 316 -3ZM384 655C566 655 649 579 649 415C649 225 549 41 329 41C285 41 236 46 168 56C168 68 169 75 172 93L268 650C291 650 349 655 384 655Z" stroke="rgb(0, 0, 0)" stroke-width="8" fill="rgb(0, 0, 0)" style="transform:matrix(0.017,0,0,-0.017,0,0);"></path></g><g><g><g><g style="transform:matrix(1,0,0,1,369.13128662109375,146.94063415527344);"><path d="M567 55C567 39 552 30 524 28L480 25L480 -3C582 0 582 0 602 0C622 0 622 0 724 -3L724 25L698 28C651 35 650 35 642 80L555 705L509 705L136 112C100 56 82 40 48 32L28 27L28 -3C120 0 120 0 140 0C159 0 161 0 247 -3L247 25L195 28C179 29 164 38 164 47C164 55 171 69 190 102L292 277L538 277L563 89L563 86C563 84 567 69 567 55ZM496 601L533 313L317 313Z" stroke="rgb(0, 0, 0)" stroke-width="8" fill="rgb(0, 0, 0)" style="transform:matrix(0.0119,0,0,-0.0119,0,0);"></path></g></g></g></g></g></g></g></g></g><g><g><g><g><g><g style="transform:matrix(1,0,0,1,206.76251220703125,71.55937194824219);"><path d="M316 -3C388 -3 437 8 489 34C645 114 741 265 741 431C741 529 711 599 650 642C604 675 519 693 424 692L220 689L210 689C201 689 198 689 97 692L94 664L147 662C171 661 182 653 182 635C182 621 178 589 173 559L86 55C81 31 56 29 33 23L28 -3L121 0L176 0C211 0 282 -3 316 -3ZM384 655C566 655 649 579 649 415C649 225 549 41 329 41C285 41 236 46 168 56C168 68 169 75 172 93L268 650C291 650 349 655 384 655Z" stroke="rgb(0, 0, 0)" stroke-width="8" fill="rgb(0, 0, 0)" style="transform:matrix(0.017,0,0,-0.017,0,0);"></path></g><g><g><g><g style="transform:matrix(1,0,0,1,219.96875,76.94061889648438);"><path d="M543 227C543 337 459 353 377 365C434 385 459 397 490 425C536 464 559 511 559 562C559 644 501 692 401 692C399 692 389 692 374 691L311 690C299 689 263 689 251 689C232 689 201 690 152 691L100 692L97 664L150 662C174 661 185 653 185 635C185 621 181 589 176 559L89 55C85 37 73 30 31 23L26 -3L63 -2C90 0 105 0 117 0C128 0 154 -1 180 -2L217 -3L237 -4C256 -5 269 -6 277 -6C392 -6 543 87 543 227ZM166 41L217 340L302 340C405 340 455 298 455 211C455 108 382 34 282 34C228 34 207 38 166 41ZM352 655C433 655 473 619 473 544C473 439 399 376 275 376L223 376L272 650C288 650 329 655 352 655Z" stroke="rgb(0, 0, 0)" stroke-width="8" fill="rgb(0, 0, 0)" style="transform:matrix(0.0119,0,0,-0.0119,0,0);"></path></g></g></g></g></g></g></g></g></g><g><g><g><g><g><g style="transform:matrix(1,0,0,1,105.7125244140625,134.5593719482422);"><path d="M567 55C567 39 552 30 524 28L480 25L480 -3C582 0 582 0 602 0C622 0 622 0 724 -3L724 25L698 28C651 35 650 35 642 80L555 705L509 705L136 112C100 56 82 40 48 32L28 27L28 -3C120 0 120 0 140 0C159 0 161 0 247 -3L247 25L195 28C179 29 164 38 164 47C164 55 171 69 190 102L292 277L538 277L563 89L563 86C563 84 567 69 567 55ZM496 601L533 313L317 313Z" stroke="rgb(38, 77, 197)" stroke-width="8" fill="rgb(38, 77, 197)" style="transform:matrix(0.017,0,0,-0.017,0,0);"></path></g><g><g><g><g style="transform:matrix(1,0,0,1,118.47503662109375,139.94063415527344);"><path d="M368 365C371 403 376 435 384 476C373 481 369 482 364 482C333 482 302 458 266 407C227 351 188 291 172 256L204 408C208 425 210 438 210 450C210 470 202 482 187 482C166 482 128 461 54 408L26 388L33 368L65 389C93 407 104 412 113 412C123 412 130 403 130 390C130 332 87 126 47 -2L57 -9C72 -4 88 -1 111 4L124 6L150 126C168 209 191 262 235 319C269 363 296 384 318 384C333 384 343 379 354 365ZM716 111L692 94C639 56 591 36 555 36C508 36 479 73 479 133C479 158 482 185 487 214C504 218 613 248 638 259C723 296 762 342 762 404C762 451 728 482 678 482C610 496 500 423 463 349C433 299 403 180 403 113C403 35 447 -11 519 -11C576 -11 632 17 724 92ZM501 274C518 343 538 386 567 412C585 428 616 440 640 440C669 440 688 420 688 388C688 344 653 297 601 272C573 258 537 247 492 237ZM1047 204L1018 77C1014 60 1012 42 1012 26C1012 4 1021 -9 1036 -9C1059 -9 1100 17 1182 85L1175 106C1151 86 1122 59 1100 59C1091 59 1085 68 1085 82C1085 87 1085 90 1086 93L1178 472L1168 481L1135 463C1094 478 1077 482 1050 482C1022 482 1002 477 975 464C913 433 880 403 855 354C811 265 780 145 780 67C780 23 795 -11 814 -11C851 -11 931 41 1047 204ZM1095 414C1073 305 1054 253 1020 201C963 117 902 59 870 59C858 59 852 72 852 99C852 163 880 280 915 360C939 415 962 433 1010 433C1033 433 1051 429 1095 414ZM1470 722L1458 733C1406 707 1370 698 1298 691L1294 670L1342 670C1366 670 1376 663 1376 648C1376 645 1376 640 1373 622C1362 567 1289 182 1274 132C1261 82 1255 52 1255 31C1255 6 1266 -9 1285 -9C1311 -9 1347 12 1445 85L1435 103L1409 86C1380 67 1358 56 1348 56C1341 56 1335 66 1335 76C1335 82 1336 89 1339 104Z" stroke="rgb(38, 77, 197)" stroke-width="8" fill="rgb(38, 77, 197)" style="transform:matrix(0.0119,0,0,-0.0119,0,0);"></path></g></g></g></g></g></g></g></g></g><g><g><g><g><g><g style="transform:matrix(1,0,0,1,278.80938720703125,140.5593719482422);"><path d="M543 227C543 337 459 353 377 365C434 385 459 397 490 425C536 464 559 511 559 562C559 644 501 692 401 692C399 692 389 692 374 691L311 690C299 689 263 689 251 689C232 689 201 690 152 691L100 692L97 664L150 662C174 661 185 653 185 635C185 621 181 589 176 559L89 55C85 37 73 30 31 23L26 -3L63 -2C90 0 105 0 117 0C128 0 154 -1 180 -2L217 -3L237 -4C256 -5 269 -6 277 -6C392 -6 543 87 543 227ZM166 41L217 340L302 340C405 340 455 298 455 211C455 108 382 34 282 34C228 34 207 38 166 41ZM352 655C433 655 473 619 473 544C473 439 399 376 275 376L223 376L272 650C288 650 329 655 352 655Z" stroke="rgb(38, 77, 197)" stroke-width="8" fill="rgb(38, 77, 197)" style="transform:matrix(0.017,0,0,-0.017,0,0);"></path></g><g><g><g><g style="transform:matrix(1,0,0,1,289.17816162109375,145.94063415527344);"><path d="M345 437L329 437L350 549C366 635 394 673 440 673C470 673 497 658 512 634L522 638C527 654 537 685 545 705L550 720C534 727 503 733 480 733C469 733 453 730 445 726C421 715 339 654 316 630C294 608 282 578 271 521L256 442C215 422 195 414 170 405L165 383L246 383L237 327C207 132 170 -54 148 -123C130 -182 100 -213 64 -213C41 -213 30 -206 12 -184L-2 -188C-6 -211 -20 -259 -25 -268C-16 -273 -1 -276 10 -276C51 -276 105 -245 144 -198C215 -114 235 -18 319 383L423 383C427 402 434 425 440 439L436 446C407 439 408 437 345 437ZM821 204L792 77C788 60 786 42 786 26C786 4 795 -9 810 -9C833 -9 874 17 956 85L949 106C925 86 896 59 874 59C865 59 859 68 859 82C859 87 859 90 860 93L952 472L942 481L909 463C868 478 851 482 824 482C796 482 776 477 749 464C687 433 654 403 629 354C585 265 554 145 554 67C554 23 569 -11 588 -11C625 -11 705 41 821 204ZM869 414C847 305 828 253 794 201C737 117 676 59 644 59C632 59 626 72 626 99C626 163 654 280 689 360C713 415 736 433 784 433C807 433 825 429 869 414ZM1233 722L1221 733C1169 707 1133 698 1061 691L1057 670L1105 670C1129 670 1139 663 1139 646C1139 638 1138 629 1137 622L1089 354C1075 279 1059 210 1007 1L1016 -9L1083 8L1106 132C1115 180 1139 225 1173 259C1242 59 1274 -9 1299 -9C1312 -9 1336 4 1380 35L1426 67L1418 86L1375 62C1361 54 1354 52 1346 52C1336 52 1329 58 1320 75C1285 139 1263 193 1224 316L1238 330C1299 391 1345 416 1395 416C1403 416 1414 414 1431 410L1448 473C1430 479 1412 482 1400 482C1334 482 1251 405 1126 230ZM1789 111L1765 94C1712 56 1664 36 1628 36C1581 36 1552 73 1552 133C1552 158 1555 185 1560 214C1577 218 1686 248 1711 259C1796 296 1835 342 1835 404C1835 451 1801 482 1751 482C1683 496 1573 423 1536 349C1506 299 1476 180 1476 113C1476 35 1520 -11 1592 -11C1649 -11 1705 17 1797 92ZM1574 274C1591 343 1611 386 1640 412C1658 428 1689 440 1713 440C1742 440 1761 420 1761 388C1761 344 1726 297 1674 272C1646 258 1610 247 1565 237Z" stroke="rgb(38, 77, 197)" stroke-width="8" fill="rgb(38, 77, 197)" style="transform:matrix(0.0119,0,0,-0.0119,0,0);"></path></g></g></g></g></g></g></g></g></g><g><g><g><g><g><g style="transform:matrix(1,0,0,1,441.85626220703125,78.55937194824219);"><path d="M567 55C567 39 552 30 524 28L480 25L480 -3C582 0 582 0 602 0C622 0 622 0 724 -3L724 25L698 28C651 35 650 35 642 80L555 705L509 705L136 112C100 56 82 40 48 32L28 27L28 -3C120 0 120 0 140 0C159 0 161 0 247 -3L247 25L195 28C179 29 164 38 164 47C164 55 171 69 190 102L292 277L538 277L563 89L563 86C563 84 567 69 567 55ZM496 601L533 313L317 313Z" stroke="rgb(38, 77, 197)" stroke-width="8" fill="rgb(38, 77, 197)" style="transform:matrix(0.017,0,0,-0.017,0,0);"></path></g><g><g><g><g style="transform:matrix(1,0,0,1,454.6187744140625,83.94063415527344);"><path d="M342 330L365 330C373 395 380 432 389 458C365 473 330 482 293 482C248 483 175 463 118 400C64 352 25 241 25 136C25 40 67 -11 147 -11C201 -11 249 9 304 54L354 95L346 115L331 105C259 57 221 40 186 40C130 40 101 80 101 159C101 267 136 371 185 409C206 425 230 433 261 433C306 433 342 414 342 390ZM399 -180C398 -187 398 -193 398 -198C398 -241 435 -276 480 -276C586 -276 696 -152 755 33L896 473L885 482C856 471 833 465 811 463L776 331C764 284 729 211 696 162C661 111 612 67 590 67C578 67 569 90 570 115L586 322C588 353 590 391 590 419C590 464 583 482 566 482C553 482 539 475 491 442L409 386L420 368L470 398C475 401 486 410 495 410C509 410 517 391 517 358C517 357 517 351 516 343L499 100L498 60C498 18 516 -11 541 -11C578 -11 662 74 737 187L688 16C637 -161 587 -234 517 -234C482 -234 455 -207 455 -172C455 -167 456 -159 457 -150L447 -146ZM1247 330L1270 330C1278 395 1285 432 1294 458C1270 473 1235 482 1198 482C1153 483 1080 463 1023 400C969 352 930 241 930 136C930 40 972 -11 1052 -11C1106 -11 1154 9 1209 54L1259 95L1251 115L1236 105C1164 57 1126 40 1091 40C1035 40 1006 80 1006 159C1006 267 1041 371 1090 409C1111 425 1135 433 1166 433C1211 433 1247 414 1247 390ZM1562 722L1550 733C1498 707 1462 698 1390 691L1386 670L1434 670C1458 670 1468 663 1468 648C1468 645 1468 640 1465 622C1454 567 1381 182 1366 132C1353 82 1347 52 1347 31C1347 6 1358 -9 1377 -9C1403 -9 1439 12 1537 85L1527 103L1501 86C1472 67 1450 56 1440 56C1433 56 1427 66 1427 76C1427 82 1428 89 1431 104ZM1916 111L1892 94C1839 56 1791 36 1755 36C1708 36 1679 73 1679 133C1679 158 1682 185 1687 214C1704 218 1813 248 1838 259C1923 296 1962 342 1962 404C1962 451 1928 482 1878 482C1810 496 1700 423 1663 349C1633 299 1603 180 1603 113C1603 35 1647 -11 1719 -11C1776 -11 1832 17 1924 92ZM1701 274C1718 343 1738 386 1767 412C1785 428 1816 440 1840 440C1869 440 1888 420 1888 388C1888 344 1853 297 1801 272C1773 258 1737 247 1692 237Z" stroke="rgb(38, 77, 197)" stroke-width="8" fill="rgb(38, 77, 197)" style="transform:matrix(0.0119,0,0,-0.0119,0,0);"></path></g></g></g></g></g></g></g></g></g><g><g><g><g><g><g style="transform:matrix(1,0,0,1,445.90936279296875,61.55937194824219);"><path d="M543 227C543 337 459 353 377 365C434 385 459 397 490 425C536 464 559 511 559 562C559 644 501 692 401 692C399 692 389 692 374 691L311 690C299 689 263 689 251 689C232 689 201 690 152 691L100 692L97 664L150 662C174 661 185 653 185 635C185 621 181 589 176 559L89 55C85 37 73 30 31 23L26 -3L63 -2C90 0 105 0 117 0C128 0 154 -1 180 -2L217 -3L237 -4C256 -5 269 -6 277 -6C392 -6 543 87 543 227ZM166 41L217 340L302 340C405 340 455 298 455 211C455 108 382 34 282 34C228 34 207 38 166 41ZM352 655C433 655 473 619 473 544C473 439 399 376 275 376L223 376L272 650C288 650 329 655 352 655Z" stroke="rgb(208, 2, 27)" stroke-width="8" fill="rgb(208, 2, 27)" style="transform:matrix(0.017,0,0,-0.017,0,0);"></path></g><g><g><g><g style="transform:matrix(1,0,0,1,456.27813720703125,66.94061889648438);"><path d="M368 365C371 403 376 435 384 476C373 481 369 482 364 482C333 482 302 458 266 407C227 351 188 291 172 256L204 408C208 425 210 438 210 450C210 470 202 482 187 482C166 482 128 461 54 408L26 388L33 368L65 389C93 407 104 412 113 412C123 412 130 403 130 390C130 332 87 126 47 -2L57 -9C72 -4 88 -1 111 4L124 6L150 126C168 209 191 262 235 319C269 363 296 384 318 384C333 384 343 379 354 365ZM716 111L692 94C639 56 591 36 555 36C508 36 479 73 479 133C479 158 482 185 487 214C504 218 613 248 638 259C723 296 762 342 762 404C762 451 728 482 678 482C610 496 500 423 463 349C433 299 403 180 403 113C403 35 447 -11 519 -11C576 -11 632 17 724 92ZM501 274C518 343 538 386 567 412C585 428 616 440 640 440C669 440 688 420 688 388C688 344 653 297 601 272C573 258 537 247 492 237ZM1047 204L1018 77C1014 60 1012 42 1012 26C1012 4 1021 -9 1036 -9C1059 -9 1100 17 1182 85L1175 106C1151 86 1122 59 1100 59C1091 59 1085 68 1085 82C1085 87 1085 90 1086 93L1178 472L1168 481L1135 463C1094 478 1077 482 1050 482C1022 482 1002 477 975 464C913 433 880 403 855 354C811 265 780 145 780 67C780 23 795 -11 814 -11C851 -11 931 41 1047 204ZM1095 414C1073 305 1054 253 1020 201C963 117 902 59 870 59C858 59 852 72 852 99C852 163 880 280 915 360C939 415 962 433 1010 433C1033 433 1051 429 1095 414ZM1470 722L1458 733C1406 707 1370 698 1298 691L1294 670L1342 670C1366 670 1376 663 1376 648C1376 645 1376 640 1373 622C1362 567 1289 182 1274 132C1261 82 1255 52 1255 31C1255 6 1266 -9 1285 -9C1311 -9 1347 12 1445 85L1435 103L1409 86C1380 67 1358 56 1348 56C1341 56 1335 66 1335 76C1335 82 1336 89 1339 104Z" stroke="rgb(208, 2, 27)" stroke-width="8" fill="rgb(208, 2, 27)" style="transform:matrix(0.0119,0,0,-0.0119,0,0);"></path></g></g></g></g></g></g></g></g></g><g><g><g><g><g><g style="transform:matrix(1,0,0,1,275.61248779296875,71.55937194824219);"><path d="M567 55C567 39 552 30 524 28L480 25L480 -3C582 0 582 0 602 0C622 0 622 0 724 -3L724 25L698 28C651 35 650 35 642 80L555 705L509 705L136 112C100 56 82 40 48 32L28 27L28 -3C120 0 120 0 140 0C159 0 161 0 247 -3L247 25L195 28C179 29 164 38 164 47C164 55 171 69 190 102L292 277L538 277L563 89L563 86C563 84 567 69 567 55ZM496 601L533 313L317 313Z" stroke="rgb(208, 2, 27)" stroke-width="8" fill="rgb(208, 2, 27)" style="transform:matrix(0.017,0,0,-0.017,0,0);"></path></g><g><g><g><g style="transform:matrix(1,0,0,1,288.375,76.94061889648438);"><path d="M345 437L329 437L350 549C366 635 394 673 440 673C470 673 497 658 512 634L522 638C527 654 537 685 545 705L550 720C534 727 503 733 480 733C469 733 453 730 445 726C421 715 339 654 316 630C294 608 282 578 271 521L256 442C215 422 195 414 170 405L165 383L246 383L237 327C207 132 170 -54 148 -123C130 -182 100 -213 64 -213C41 -213 30 -206 12 -184L-2 -188C-6 -211 -20 -259 -25 -268C-16 -273 -1 -276 10 -276C51 -276 105 -245 144 -198C215 -114 235 -18 319 383L423 383C427 402 434 425 440 439L436 446C407 439 408 437 345 437ZM821 204L792 77C788 60 786 42 786 26C786 4 795 -9 810 -9C833 -9 874 17 956 85L949 106C925 86 896 59 874 59C865 59 859 68 859 82C859 87 859 90 860 93L952 472L942 481L909 463C868 478 851 482 824 482C796 482 776 477 749 464C687 433 654 403 629 354C585 265 554 145 554 67C554 23 569 -11 588 -11C625 -11 705 41 821 204ZM869 414C847 305 828 253 794 201C737 117 676 59 644 59C632 59 626 72 626 99C626 163 654 280 689 360C713 415 736 433 784 433C807 433 825 429 869 414ZM1233 722L1221 733C1169 707 1133 698 1061 691L1057 670L1105 670C1129 670 1139 663 1139 646C1139 638 1138 629 1137 622L1089 354C1075 279 1059 210 1007 1L1016 -9L1083 8L1106 132C1115 180 1139 225 1173 259C1242 59 1274 -9 1299 -9C1312 -9 1336 4 1380 35L1426 67L1418 86L1375 62C1361 54 1354 52 1346 52C1336 52 1329 58 1320 75C1285 139 1263 193 1224 316L1238 330C1299 391 1345 416 1395 416C1403 416 1414 414 1431 410L1448 473C1430 479 1412 482 1400 482C1334 482 1251 405 1126 230ZM1789 111L1765 94C1712 56 1664 36 1628 36C1581 36 1552 73 1552 133C1552 158 1555 185 1560 214C1577 218 1686 248 1711 259C1796 296 1835 342 1835 404C1835 451 1801 482 1751 482C1683 496 1573 423 1536 349C1506 299 1476 180 1476 113C1476 35 1520 -11 1592 -11C1649 -11 1705 17 1797 92ZM1574 274C1591 343 1611 386 1640 412C1658 428 1689 440 1713 440C1742 440 1761 420 1761 388C1761 344 1726 297 1674 272C1646 258 1610 247 1565 237Z" stroke="rgb(208, 2, 27)" stroke-width="8" fill="rgb(208, 2, 27)" style="transform:matrix(0.0119,0,0,-0.0119,0,0);"></path></g></g></g></g></g></g></g></g></g><g><g><g><g><g><g style="transform:matrix(1,0,0,1,105.05316162109375,151.5593719482422);"><path d="M543 227C543 337 459 353 377 365C434 385 459 397 490 425C536 464 559 511 559 562C559 644 501 692 401 692C399 692 389 692 374 691L311 690C299 689 263 689 251 689C232 689 201 690 152 691L100 692L97 664L150 662C174 661 185 653 185 635C185 621 181 589 176 559L89 55C85 37 73 30 31 23L26 -3L63 -2C90 0 105 0 117 0C128 0 154 -1 180 -2L217 -3L237 -4C256 -5 269 -6 277 -6C392 -6 543 87 543 227ZM166 41L217 340L302 340C405 340 455 298 455 211C455 108 382 34 282 34C228 34 207 38 166 41ZM352 655C433 655 473 619 473 544C473 439 399 376 275 376L223 376L272 650C288 650 329 655 352 655Z" stroke="rgb(208, 2, 27)" stroke-width="8" fill="rgb(208, 2, 27)" style="transform:matrix(0.017,0,0,-0.017,0,0);"></path></g><g><g><g><g style="transform:matrix(1,0,0,1,115.421875,156.94063415527344);"><path d="M342 330L365 330C373 395 380 432 389 458C365 473 330 482 293 482C248 483 175 463 118 400C64 352 25 241 25 136C25 40 67 -11 147 -11C201 -11 249 9 304 54L354 95L346 115L331 105C259 57 221 40 186 40C130 40 101 80 101 159C101 267 136 371 185 409C206 425 230 433 261 433C306 433 342 414 342 390ZM399 -180C398 -187 398 -193 398 -198C398 -241 435 -276 480 -276C586 -276 696 -152 755 33L896 473L885 482C856 471 833 465 811 463L776 331C764 284 729 211 696 162C661 111 612 67 590 67C578 67 569 90 570 115L586 322C588 353 590 391 590 419C590 464 583 482 566 482C553 482 539 475 491 442L409 386L420 368L470 398C475 401 486 410 495 410C509 410 517 391 517 358C517 357 517 351 516 343L499 100L498 60C498 18 516 -11 541 -11C578 -11 662 74 737 187L688 16C637 -161 587 -234 517 -234C482 -234 455 -207 455 -172C455 -167 456 -159 457 -150L447 -146ZM1247 330L1270 330C1278 395 1285 432 1294 458C1270 473 1235 482 1198 482C1153 483 1080 463 1023 400C969 352 930 241 930 136C930 40 972 -11 1052 -11C1106 -11 1154 9 1209 54L1259 95L1251 115L1236 105C1164 57 1126 40 1091 40C1035 40 1006 80 1006 159C1006 267 1041 371 1090 409C1111 425 1135 433 1166 433C1211 433 1247 414 1247 390ZM1562 722L1550 733C1498 707 1462 698 1390 691L1386 670L1434 670C1458 670 1468 663 1468 648C1468 645 1468 640 1465 622C1454 567 1381 182 1366 132C1353 82 1347 52 1347 31C1347 6 1358 -9 1377 -9C1403 -9 1439 12 1537 85L1527 103L1501 86C1472 67 1450 56 1440 56C1433 56 1427 66 1427 76C1427 82 1428 89 1431 104ZM1916 111L1892 94C1839 56 1791 36 1755 36C1708 36 1679 73 1679 133C1679 158 1682 185 1687 214C1704 218 1813 248 1838 259C1923 296 1962 342 1962 404C1962 451 1928 482 1878 482C1810 496 1700 423 1663 349C1633 299 1603 180 1603 113C1603 35 1647 -11 1719 -11C1776 -11 1832 17 1924 92ZM1701 274C1718 343 1738 386 1767 412C1785 428 1816 440 1840 440C1869 440 1888 420 1888 388C1888 344 1853 297 1801 272C1773 258 1737 247 1692 237Z" stroke="rgb(208, 2, 27)" stroke-width="8" fill="rgb(208, 2, 27)" style="transform:matrix(0.0119,0,0,-0.0119,0,0);"></path></g></g></g></g></g></g></g></g></g><g><g><g><g><g><g style="transform:matrix(1,0,0,1,111.11566162109375,71.09062194824219);"><path d="M349 664L352 692L238 689C222 689 204 689 161 690L97 692L94 664L141 662C165 661 176 653 176 635L81 55C77 37 65 30 21 23L16 -3L57 -2C88 -1 150 0 170 0L467 -1L500 0C499 25 510 103 523 165L492 165L475 103C466 71 457 54 448 49C435 44 371 39 304 39C255 39 228 40 162 46C165 64 256 605 256 613C263 651 270 658 307 661Z" stroke="rgb(0, 0, 0)" stroke-width="8" fill="rgb(0, 0, 0)" style="transform:matrix(0.017,0,0,-0.017,0,0);"></path></g><g><g><g><g style="transform:matrix(1,0,0,1,120.546875,76.47186889648438);"><path d="M316 -3C388 -3 437 8 489 34C645 114 741 265 741 431C741 529 711 599 650 642C604 675 519 693 424 692L220 689L210 689C201 689 198 689 97 692L94 664L147 662C171 661 182 653 182 635C182 621 178 589 173 559L86 55C81 31 56 29 33 23L28 -3L121 0L176 0C211 0 282 -3 316 -3ZM384 655C566 655 649 579 649 415C649 225 549 41 329 41C285 41 236 46 168 56C168 68 169 75 172 93L268 650C291 650 349 655 384 655Z" stroke="rgb(0, 0, 0)" stroke-width="8" fill="rgb(0, 0, 0)" style="transform:matrix(0.0119,0,0,-0.0119,0,0);"></path></g><g><g><g><g style="transform:matrix(1,0,0,1,129.7906494140625,80.23937805175781);"><path d="M543 227C543 337 459 353 377 365C434 385 459 397 490 425C536 464 559 511 559 562C559 644 501 692 401 692C399 692 389 692 374 691L311 690C299 689 263 689 251 689C232 689 201 690 152 691L100 692L97 664L150 662C174 661 185 653 185 635C185 621 181 589 176 559L89 55C85 37 73 30 31 23L26 -3L63 -2C90 0 105 0 117 0C128 0 154 -1 180 -2L217 -3L237 -4C256 -5 269 -6 277 -6C392 -6 543 87 543 227ZM166 41L217 340L302 340C405 340 455 298 455 211C455 108 382 34 282 34C228 34 207 38 166 41ZM352 655C433 655 473 619 473 544C473 439 399 376 275 376L223 376L272 650C288 650 329 655 352 655Z" stroke="rgb(0, 0, 0)" stroke-width="8" fill="rgb(0, 0, 0)" style="transform:matrix(0.00833,0,0,-0.00833,0,0);"></path></g></g></g></g></g></g></g></g></g></g></g></g><g><g><g><g><g><g style="transform:matrix(1,0,0,1,444.52813720703125,141.0906219482422);"><path d="M349 664L352 692L238 689C222 689 204 689 161 690L97 692L94 664L141 662C165 661 176 653 176 635L81 55C77 37 65 30 21 23L16 -3L57 -2C88 -1 150 0 170 0L467 -1L500 0C499 25 510 103 523 165L492 165L475 103C466 71 457 54 448 49C435 44 371 39 304 39C255 39 228 40 162 46C165 64 256 605 256 613C263 651 270 658 307 661Z" stroke="rgb(0, 0, 0)" stroke-width="8" fill="rgb(0, 0, 0)" style="transform:matrix(0.017,0,0,-0.017,0,0);"></path></g><g><g><g><g style="transform:matrix(1,0,0,1,453.95941162109375,146.47188415527344);"><path d="M316 -3C388 -3 437 8 489 34C645 114 741 265 741 431C741 529 711 599 650 642C604 675 519 693 424 692L220 689L210 689C201 689 198 689 97 692L94 664L147 662C171 661 182 653 182 635C182 621 178 589 173 559L86 55C81 31 56 29 33 23L28 -3L121 0L176 0C211 0 282 -3 316 -3ZM384 655C566 655 649 579 649 415C649 225 549 41 329 41C285 41 236 46 168 56C168 68 169 75 172 93L268 650C291 650 349 655 384 655Z" stroke="rgb(0, 0, 0)" stroke-width="8" fill="rgb(0, 0, 0)" style="transform:matrix(0.0119,0,0,-0.0119,0,0);"></path></g><g><g><g><g style="transform:matrix(1,0,0,1,463.203125,150.23937805175783);"><path d="M567 55C567 39 552 30 524 28L480 25L480 -3C582 0 582 0 602 0C622 0 622 0 724 -3L724 25L698 28C651 35 650 35 642 80L555 705L509 705L136 112C100 56 82 40 48 32L28 27L28 -3C120 0 120 0 140 0C159 0 161 0 247 -3L247 25L195 28C179 29 164 38 164 47C164 55 171 69 190 102L292 277L538 277L563 89L563 86C563 84 567 69 567 55ZM496 601L533 313L317 313Z" stroke="rgb(0, 0, 0)" stroke-width="8" fill="rgb(0, 0, 0)" style="transform:matrix(0.00833,0,0,-0.00833,0,0);"></path></g></g></g></g></g></g></g></g></g></g></g></g></svg>
</svg>
